<?xml version="1.0" encoding="UTF-8"?>
<!DOCTYPE svg PUBLIC "-//W3C//DTD SVG 1.1//EN" "http://www.w3.org/Graphics/SVG/1.1/DTD/svg11.dtd">
<!-- Creator: CorelDRAW -->
<svg xmlns="http://www.w3.org/2000/svg" xml:space="preserve" width="44.2144mm" height="18.1195mm" version="1.1" style="shape-rendering:geometricPrecision; text-rendering:geometricPrecision; image-rendering:optimizeQuality; fill-rule:evenodd; clip-rule:evenodd"
viewBox="0 0 5441.98 2230.18"
 xmlns:xlink="http://www.w3.org/1999/xlink"
 xmlns:xodm="http://www.corel.com/coreldraw/odm/2003">
 <defs>
  <style type="text/css">
   <![CDATA[
    .fil2 {fill:none}
    .fil0 {fill:black;fill-rule:nonzero}
    .fil1 {fill:black;fill-rule:nonzero;fill-opacity:0.800000}
   ]]>
  </style>
   <clipPath id="id0">
    <path d="M-0 2230.18l5441.98 0 0 -2230.18 -5441.98 0 0 2230.18z"/>
   </clipPath>
 </defs>
 <g id="Capa_x0020_1">
  <metadata id="CorelCorpID_0Corel-Layer"/>
  <g>
  </g>
  <g style="clip-path:url(#id0)">
   <g id="_2120835238144">
    <path class="fil0" d="M152.12 1699.17l0 505.16 -152.12 0 0 -1116.54 743.39 0 20.1 106.21c-2.87,0 -2.87,0 -5.75,-2.87 -5.74,0 -8.6,0 -8.6,-2.87 -11.48,-17.23 -54.56,-34.45 -126.31,-51.68 -74.62,-17.23 -172.22,-25.81 -295.63,-25.81l-175.08 0 0 559.69 485.07 0 0 25.83 -485.07 0 0 2.87z"/>
    <path class="fil0" d="M1274.36 1888.62c0,-28.71 0,-57.39 0,-86.11 0,-31.58 -2.87,-60.27 -2.87,-91.86 -11.46,25.85 -31.56,43.07 -60.26,60.27 -28.69,14.35 -60.27,28.71 -94.72,40.2 -34.43,11.48 -71.76,22.97 -109.05,31.58 -37.33,11.48 -74.62,22.94 -106.21,40.16 -31.58,17.23 -57.41,37.33 -77.49,63.14 -20.1,25.85 -31.58,60.3 -31.58,100.47 0,45.93 11.48,77.49 34.45,100.46 22.97,22.97 54.53,34.43 94.72,34.43 40.16,0 91.84,-11.46 146.37,-37.29 57.41,-25.85 120.57,-63.14 189.45,-111.96 -17.23,17.23 -40.2,37.33 -68.88,60.3 -28.71,22.94 -63.17,43.04 -100.47,63.14 -37.32,20.1 -74.62,37.29 -111.94,48.78 -40.17,14.36 -74.62,20.1 -106.21,20.1 -25.82,0 -54.53,-2.87 -80.37,-8.62 -25.83,-5.74 -51.65,-14.35 -74.62,-28.7 -22.97,-14.34 -40.16,-31.56 -54.53,-54.53 -14.35,-22.98 -22.97,-54.53 -22.97,-91.86 0,-31.56 8.62,-60.26 25.85,-83.24 17.22,-22.97 40.16,-43.04 68.88,-60.26 28.71,-17.23 63.14,-31.58 100.46,-43.04 37.31,-11.48 74.62,-22.97 114.8,-31.58 40.2,-11.48 77.49,-20.1 114.82,-28.71 37.32,-8.62 71.74,-20.1 100.46,-31.56 31.58,-11.48 54.53,-25.83 74.62,-40.2 17.23,-17.22 28.71,-34.45 31.56,-57.39 -5.72,-34.45 -11.46,-66.03 -22.94,-97.59 -8.62,-31.58 -22.97,-57.39 -40.2,-80.36 -17.19,-22.98 -40.17,-40.2 -66.01,-54.56 -25.85,-14.33 -60.27,-17.19 -97.59,-17.19 -57.39,2.87 -100.43,8.59 -129.15,20.07 -28.71,11.48 -48.81,25.83 -63.14,43.07 -14.35,17.22 -17.23,34.45 -17.23,54.53 0,20.1 0,37.32 0,54.53 0,20.1 -5.74,34.45 -17.22,45.93 -11.48,11.48 -25.85,14.36 -43.07,14.36 -17.21,0 -34.43,-5.75 -51.66,-20.1 -17.23,-14.36 -22.97,-31.58 -22.97,-54.53 0,-31.58 14.35,-60.27 40.2,-83.24 25.83,-22.97 60.26,-43.07 97.59,-57.43 37.29,-14.33 77.49,-25.81 117.67,-31.55 40.19,-5.75 71.74,-8.62 97.59,-8.62 80.36,0 146.37,11.48 195.18,34.43 48.78,22.97 86.11,54.55 111.92,91.84 25.85,37.33 43.07,83.26 51.68,134.92 8.62,51.66 11.48,103.34 11.48,160.73l0 393.22 -143.5 0 0 -318.6 -2.9 0z"/>
    <path class="fil0" d="M1736.49 2146.94c14.36,20.1 37.33,34.45 68.89,43.07 31.58,8.62 63.14,14.35 100.46,14.35 34.45,0 71.76,-2.87 106.21,-11.48 37.29,-8.6 68.88,-20.1 97.59,-34.45 28.69,-14.35 54.53,-31.56 71.76,-54.53 20.1,-20.1 28.68,-45.93 28.68,-74.62 0,-34.45 -14.33,-63.14 -45.91,-83.24 -31.58,-20.1 -71.74,-37.32 -117.69,-51.68 -45.91,-14.33 -97.57,-28.68 -152.12,-40.16 -54.53,-11.48 -106.18,-28.71 -152.12,-45.95 -45.91,-20.06 -86.11,-43.03 -117.69,-74.61 -31.56,-31.56 -45.91,-71.76 -45.91,-120.55 0,-45.93 11.48,-83.23 34.43,-111.94 22.97,-28.71 54.55,-51.66 88.98,-68.88 37.33,-17.23 74.65,-28.71 117.69,-34.46 43.04,-5.74 80.37,-8.6 117.69,-8.6 17.21,0 40.17,2.87 68.89,5.74 28.7,2.87 57.39,11.48 83.23,22.97 25.85,11.48 51.66,22.97 71.76,40.17 20.1,17.23 31.58,40.2 31.58,66.03 0,17.23 -5.75,31.56 -20.1,43.04 -14.35,11.48 -28.71,17.23 -45.91,17.23 -22.97,0 -37.33,-5.75 -48.81,-14.36 -11.48,-8.6 -17.22,-20.1 -22.97,-34.43 -5.75,-11.48 -8.62,-25.83 -11.48,-40.2 -2.84,-14.35 -5.71,-25.81 -14.33,-34.45 -14.36,-17.19 -31.58,-31.56 -48.81,-37.29 -20.1,-5.75 -43.04,-11.48 -68.88,-11.48 -28.71,0 -57.41,2.87 -86.11,8.62 -31.58,5.74 -57.41,14.35 -83.24,25.83 -25.83,11.46 -45.91,28.69 -60.27,45.91 -17.22,20.1 -22.97,43.07 -22.97,68.89 0,25.83 8.62,48.8 28.71,66.03 17.19,17.19 43.04,31.56 71.76,45.91 28.7,11.48 63.13,22.97 103.3,31.58 37.33,8.62 77.52,17.23 117.69,28.69 40.2,11.48 80.37,22.97 117.69,34.45 37.29,11.48 71.76,28.68 103.34,45.91 28.68,17.23 54.53,40.2 71.74,66.03 17.23,25.82 28.69,60.27 28.69,97.57 0,43.07 -11.46,80.37 -34.43,111.96 -22.97,31.58 -51.68,54.53 -88.98,74.62 -37.33,20.1 -77.5,34.45 -123.44,43.07 -45.91,8.62 -94.72,14.35 -143.5,14.35 -17.23,0 -34.43,0 -57.41,-2.87 -22.97,-2.87 -45.93,-2.87 -71.74,-8.62 -25.85,-2.87 -48.81,-8.62 -74.65,-17.23 -25.82,-5.74 -45.91,-14.35 -66.01,-25.83 -20.1,-11.48 -34.44,-22.97 -48.79,-37.31 -11.48,-14.35 -17.23,-31.57 -17.23,-54.55 0,-17.22 5.75,-28.68 20.1,-40.16 14.36,-11.48 28.69,-17.23 45.92,-17.23 22.97,0 37.32,5.75 48.8,14.35 11.46,8.62 17.21,20.07 22.94,34.44 2.88,14.35 8.62,25.83 8.62,40.19 2.87,20.1 8.62,31.56 14.35,40.17z"/>
    <path class="fil1" d="M2411.01 1087.81l143.5 -77.49 0 1196.9 -143.5 0 0 -1119.4zm160.73 398.96c11.48,-17.19 28.71,-31.56 45.93,-43.04 17.23,-11.48 37.31,-22.97 60.27,-28.71 22.97,-5.71 43.07,-14.33 65.98,-17.19 22.97,-2.87 43.07,-5.75 66.01,-5.75 66.03,0 120.56,8.62 163.64,22.94 43.04,14.36 80.34,37.33 106.17,63.17 28.71,25.82 48.81,57.41 63.14,91.86 14.36,34.43 25.85,71.76 31.58,109.05 5.75,40.2 8.62,77.49 11.48,120.56 0,40.17 0,80.37 0,117.67l0 289.91 -143.5 0 0 -304.23c0,-28.71 0,-57.42 0,-91.86 0,-34.45 -2.87,-68.88 -5.75,-106.19 -2.87,-37.33 -11.48,-71.76 -20.09,-106.21 -8.62,-34.44 -22.98,-63.14 -40.17,-91.86 -17.23,-25.81 -43.07,-48.79 -71.78,-63.14 -28.69,-17.23 -66.01,-25.83 -111.92,-25.83 -37.33,0 -66.01,2.87 -91.83,8.6 -25.83,5.75 -45.93,11.5 -63.17,17.23 -17.19,5.75 -31.56,14.35 -40.16,22.97 -11.5,8.62 -20.1,14.36 -25.85,20.07z"/>
    <polygon class="fil1" points="3511.23,1366.26 3511.23,2204.37 3367.71,2204.37 3367.71,1443.72 "/>
    <path class="fil1" d="M3328.36 1119.37c-22.6,11.88 -78.5,17.17 -78.5,17.17l0 21.16c0,0 55.9,5.27 78.5,17.17 21.31,11.88 39.93,27.77 53.23,48.89 14.65,21.15 23.98,44.94 30.61,72.7 6.66,27.73 9.32,51.65 9.32,51.65l18.62 0c0,0 6.6,-37.92 9.33,-51.65 6.63,-27.77 17.31,-51.56 30.61,-72.7 13.31,-21.12 30.61,-37.01 53.23,-48.89 22.6,-11.9 78.5,-17.17 78.5,-17.17l0 -21.16c0,0 -55.9,-5.29 -78.5,-17.17 -21.31,-11.91 -39.93,-27.77 -53.23,-48.91 -14.65,-21.13 -23.98,-44.91 -30.61,-72.68 -3.05,-16.36 -9.33,-58.03 -9.33,-58.03l-18.62 0c0,0 -6.19,47.47 -9.32,58.03 -6.63,27.77 -17.31,51.55 -30.61,72.68 -13.31,21.15 -30.61,37 -53.23,48.91z"/>
    <path class="fil0" d="M3683.87 1808.24c0,-54.53 8.6,-106.17 25.83,-157.85 17.19,-51.66 45.91,-94.72 83.24,-134.9 37.29,-40.19 83.23,-68.88 137.75,-91.84 54.54,-22.97 120.57,-34.45 195.2,-34.45 74.62,0 140.63,11.48 195.16,34.45 54.55,22.97 100.46,54.53 137.79,94.72 37.29,40.16 63.13,83.23 80.36,134.89 17.23,48.81 25.85,103.34 25.85,154.98 0,54.56 -8.62,106.21 -25.85,157.89 -17.23,51.66 -45.91,94.7 -83.24,134.9 -37.32,40.16 -83.23,68.88 -137.79,91.84 -54.53,22.98 -120.53,34.43 -192.28,34.43 -71.76,0 -140.66,-11.45 -195.2,-34.43 -54.53,-22.97 -100.46,-54.55 -137.75,-94.71 -37.33,-40.2 -63.17,-83.24 -83.24,-134.9 -17.23,-48.81 -25.83,-100.46 -25.83,-155.02zm367.4 -384.59c-48.81,0 -88.99,11.48 -120.57,34.43 -31.55,22.97 -57.39,51.68 -74.61,86.11 -17.23,34.45 -25.85,77.52 -31.58,123.43 -2.88,45.95 0,94.72 8.6,143.51 8.62,48.8 22.98,94.72 45.95,143.53 20.1,45.91 45.91,86.11 77.49,123.41 31.56,34.45 66.01,66.01 106.21,86.11 40.17,22.97 83.24,34.45 132.02,34.45 48.81,0 86.11,-11.48 117.69,-34.45 31.56,-22.98 54.53,-51.66 71.76,-86.11 17.22,-34.44 25.81,-77.5 31.56,-123.41 2.87,-45.93 0,-94.72 -8.62,-143.53 -8.59,-48.79 -25.82,-94.7 -45.91,-143.51 -20.1,-45.91 -45.92,-86.11 -77.5,-123.43 -31.58,-34.43 -66.01,-66.01 -106.21,-86.11 -40.16,-20.07 -77.49,-34.43 -126.27,-34.43z"/>
    <path class="fil0" d="M4688.16 1443.72l143.51 -77.5 0 838.14 -143.51 0 0 -760.63zm157.86 43.07c11.48,-17.23 28.69,-31.58 45.91,-43.07 17.23,-11.5 37.33,-22.94 60.3,-28.69 22.94,-5.75 43.04,-14.35 66.01,-17.23 22.97,-2.87 43.04,-5.74 66.01,-5.74 66.01,0 120.56,8.62 163.6,22.97 43.07,14.35 80.37,37.29 106.21,63.14 28.71,25.83 48.79,57.39 63.14,91.84 14.36,34.46 25.85,71.76 31.58,109.09 5.75,40.16 8.62,77.49 11.46,120.53 0,40.19 0,80.36 0,117.69l0 289.88 -143.5 0 0 -304.25c0,-28.7 0,-57.39 0,-91.84 0,-34.46 -2.87,-68.89 -5.75,-106.21 -2.87,-37.31 -11.48,-71.76 -20.07,-106.21 -8.6,-34.43 -22.97,-63.14 -40.19,-91.82 -17.23,-25.85 -43.07,-48.81 -71.76,-63.17 -28.71,-17.21 -66.01,-25.82 -111.94,-25.82 -37.31,0 -66.02,2.88 -91.86,8.62 -25.81,5.71 -45.91,11.46 -63.14,17.21 -17.22,5.74 -31.58,14.35 -40.2,22.97 -11.46,8.62 -20.06,14.35 -25.81,20.1z"/>
    <path class="fil1" d="M1566.81 60.27c114.8,0 215.27,17.19 301.38,48.78 86.11,34.46 157.85,77.5 215.26,132.05 57.42,54.53 100.46,114.8 129.17,186.54 28.7,68.89 43.04,140.66 43.04,215.28 0,71.76 -14.34,143.51 -43.04,212.39 -28.71,68.89 -71.76,132.05 -129.17,186.58 -57.41,54.53 -129.15,97.59 -215.26,132.04 -86.11,34.43 -186.58,51.66 -301.38,51.66 -114.81,0 -215.28,-17.23 -301.39,-51.66 -86.11,-34.45 -157.85,-77.52 -215.26,-132.04 -57.42,-54.53 -100.46,-117.69 -129.17,-186.58 -28.71,-68.88 -43.04,-140.63 -43.04,-212.39 0,-74.62 14.33,-143.53 43.04,-215.28 28.71,-68.88 71.76,-132.02 129.17,-186.54 57.41,-54.55 129.15,-97.59 215.26,-132.05 86.11,-31.58 186.58,-48.78 301.39,-48.78zm86.12 1127.99c86.07,0 160.73,-14.33 220.99,-45.91 60.27,-31.58 109.08,-71.76 146.38,-123.44 37.32,-51.65 60.26,-109.05 71.74,-175.08 11.5,-66.01 11.5,-132.02 2.88,-200.91 -11.48,-68.88 -31.56,-134.91 -66.01,-200.92 -34.44,-66.02 -74.62,-123.41 -126.28,-175.1 -51.68,-51.66 -111.96,-91.84 -183.7,-123.4 -71.76,-31.58 -149.25,-45.95 -235.38,-45.95 -88.96,0 -163.61,14.36 -223.87,45.95 -60.27,31.56 -109.09,71.74 -143.51,123.4 -37.32,51.68 -60.26,109.08 -71.74,175.1 -11.48,66.01 -11.48,132.04 -2.88,200.92 11.48,68.89 31.56,134.9 63.14,200.91 31.58,66.03 74.62,123.44 126.28,175.08 51.68,51.68 114.82,91.86 183.7,123.44 71.76,28.71 152.14,45.91 238.26,45.91z"/>
    <path class="fil0" d="M2411 330.06l143.5 -77.49 0 476.47c2.88,48.79 11.5,97.57 25.85,140.63 14.35,43.07 34.45,83.24 63.14,114.82 25.83,31.56 57.42,60.26 97.59,77.49 37.32,20.07 80.36,28.69 129.17,28.69 60.26,0 106.21,-20.07 143.5,-57.41 37.31,-37.32 60.27,-86.11 74.62,-143.5 14.36,-57.42 17.23,-120.56 11.48,-186.57 -5.74,-66.01 -22.97,-129.17 -48.8,-186.58 -25.82,-57.39 -60.27,-106.21 -103.31,-143.5 -43.07,-37.33 -94.72,-57.42 -152.12,-57.42 -20.1,0 -43.07,2.87 -63.17,11.48 -20.07,8.6 -40.17,17.22 -60.27,28.7 -20.09,11.48 -37.29,25.85 -51.65,40.2 -17.23,14.33 -28.71,31.56 -37.33,45.91 22.97,-48.78 60.27,-88.98 109.08,-120.56 51.66,-31.56 106.18,-45.91 163.61,-45.91 71.74,0 132.02,11.48 183.7,34.45 51.65,22.94 91.84,54.53 126.27,94.7 31.58,40.2 57.43,83.24 71.76,134.92 14.35,51.65 22.97,100.46 22.97,154.98 0,54.53 -8.62,103.34 -22.97,154.98 -14.33,48.81 -40.17,94.72 -71.76,134.92 -31.56,40.17 -74.62,71.76 -126.27,94.7 -51.68,22.97 -111.96,37.32 -180.83,37.32 -74.62,0 -137.77,-11.48 -186.58,-31.58 -48.78,-20.07 -86.11,-48.78 -114.81,-83.24l0 490.84 -143.51 0 0 -1162.47 -2.87 0z"/>
    <path class="fil1" d="M3595.83 551.09c0,54.53 8.6,109.05 25.83,166.47 17.23,57.41 43.07,106.18 74.62,155 31.58,45.91 71.76,83.24 117.69,111.94 45.91,28.69 97.59,43.04 152.12,43.04 51.66,0 97.59,-11.48 137.77,-31.58 40.2,-22.94 74.62,-48.78 103.34,-77.49 28.7,-28.69 51.68,-60.27 66.01,-88.98 17.22,-28.69 25.83,-51.66 25.83,-66.01 -2.87,37.32 -17.22,77.49 -40.16,114.81 -22.98,37.31 -51.68,71.76 -89.01,103.34 -37.29,31.56 -77.49,54.53 -126.28,74.62 -48.8,17.23 -100.46,28.69 -154.98,28.69 -74.62,0 -140.66,-11.46 -195.18,-34.44 -54.53,-22.97 -100.47,-54.55 -137.77,-94.71 -37.33,-40.2 -63.17,-83.24 -83.24,-134.9 -17.23,-48.81 -25.83,-103.34 -25.83,-155.02 0,-71.74 11.48,-132.02 34.45,-183.67 22.94,-51.68 54.53,-94.71 91.86,-129.17 37.29,-34.45 80.36,-60.26 129.15,-74.62 48.78,-17.22 97.59,-25.83 146.37,-25.83 37.33,0 74.62,5.74 109.08,17.22 37.31,11.5 68.89,28.71 100.47,51.66 31.56,22.97 57.39,48.81 80.36,77.53 22.97,31.55 40.17,63.13 54.53,100.43 5.75,17.23 2.88,31.58 -5.74,43.07 -8.62,11.48 -22.94,17.23 -43.04,17.23l-548.23 0 0 -8.62zm223.9 -278.42c-37.33,0 -68.91,5.74 -97.6,20.1 -28.7,14.35 -51.67,31.56 -68.88,54.53 -17.23,22.97 -31.58,51.68 -43.07,80.36 -8.62,31.58 -14.35,63.14 -17.23,97.59l470.74 0c-5.74,-20.1 -14.35,-43.04 -25.83,-71.74 -11.48,-28.71 -28.71,-57.41 -48.81,-83.24 -20.07,-25.85 -43.04,-48.81 -71.74,-68.89 -28.69,-20.09 -63.14,-28.7 -97.57,-28.7z"/>
    <path class="fil1" d="M4377 321.44l143.5 -77.49 0 838.11 -143.5 0 0 -760.62zm160.73 43.07c11.48,-17.22 28.71,-31.58 45.91,-43.07 17.23,-11.46 37.33,-22.94 60.3,-28.68 22.94,-8.62 43.04,-14.36 66.01,-17.23 22.94,-2.87 43.04,-5.75 66.01,-5.75 66.01,0 120.56,8.62 163.6,22.98 43.04,14.35 80.37,37.29 106.21,63.14 28.69,25.83 48.79,57.39 63.14,91.84 14.36,34.45 25.85,71.76 31.58,109.08 5.75,40.17 8.62,77.5 11.48,120.55 0,40.19 0,80.36 0,117.69l0 289.88 -143.53 0 0 -304.25c0,-28.71 0,-57.39 0,-94.72 0,-34.43 -2.87,-68.88 -5.75,-106.21 -2.87,-37.29 -11.48,-71.74 -20.1,-106.17 -8.58,-34.46 -22.94,-63.17 -40.16,-91.86 -17.23,-25.83 -43.04,-48.81 -71.76,-66.01 -28.71,-17.23 -66.01,-25.85 -111.96,-25.85 -37.29,0 -66.01,2.88 -91.84,8.62 -25.81,5.75 -45.91,11.48 -63.14,17.23 -17.23,5.71 -31.58,14.33 -40.17,22.94 -11.48,11.48 -20.1,20.1 -25.83,25.83z"/>
   </g>
  </g>
  <polygon class="fil2" points="-0,2230.18 5441.98,2230.18 5441.98,0 -0,0 "/>
 </g>
</svg>
